<svg xmlns:dc="http://purl.org/dc/elements/1.1/" xmlns:cc="http://creativecommons.org/ns#" xmlns:rdf="http://www.w3.org/1999/02/22-rdf-syntax-ns#" xmlns:svg="http://www.w3.org/2000/svg" xmlns="http://www.w3.org/2000/svg" xmlns:xlink="http://www.w3.org/1999/xlink" id="svg377419" version="1.1" viewBox="309.03 362.02 405.95 43.97">   <metadata id="metadata377425">     <rdf:rdf>       <cc:work rdf:about="">         <dc:format>image/svg+xml</dc:format>         <dc:type rdf:resource="http://purl.org/dc/dcmitype/StillImage"></dc:type>       </cc:work>     </rdf:rdf>   </metadata>   <defs id="defs377423"></defs>   <g id="logo-group">          <g id="logo-center" transform="translate(0 0)">       <image xlink:href="" id="icon_container" style="display: none;" x="0" y="0"></image>       <g id="title" style="font-style:normal;font-weight:700;font-size:72px;line-height:1;font-family:'Brandmark1 Bold Color';font-variant-ligatures:normal;text-align:center;text-anchor:middle" transform="translate(0 0)">         <g id="path377428" aria-label="A" transform="translate(0 299.56492) translate(309.02635989999993 62.84119999999999) scale(0.77) translate(-246.17487 53.64)"> <polygon class="c1" points="104.82788,71.91748 95.08569,71.91748 73.80786,128.08252 85.77515,128.08252 99.93921,89.14844 114.22534,128.08252 126.19214,128.08252 " transform="translate(172.36701 -125.55748)" stroke-width="0" stroke-linejoin="miter" stroke-miterlimit="2" fill="#392e42" stroke="#392e42"></polygon> <polygon class="c3" points="100.03819,128.08252 91.09854,114.24284 108.90146,114.24284 " transform="translate(172.36701 -125.55748)" stroke-width="0" stroke-linejoin="miter" stroke-miterlimit="2" fill="#e45151" stroke="#e45151"></polygon> </g>         <g id="path377430" aria-label="S" transform="translate(0 299.56492) translate(347.6559123999999 62.45312) scale(0.77) translate(-296.34312 54.144)"> <path class="c1" d="M80.97266,119.83057l-1.51953-1.62793l7.43848-8.89941l1.92188,2.41211 c1.50488,1.88672,3.4707,3.43457,5.6748,4.47168c2.07324,0.979,4.3125,1.49023,6.47266,1.49023 c2.5498,0,4.72363-0.56152,6.12109-1.57666c1.25977-0.91455,1.87207-2.13867,1.87207-3.75146 c0-1.75732-0.54004-2.84424-1.91504-3.87402c-1.58496-1.18115-4.14844-2.146-7.12207-3.26904 c-0.25195-0.09375-0.51074-0.19434-0.77734-0.29541c-4.08301-1.51904-8.00684-3.08154-11.1543-5.5874 c-1.82861-1.45459-3.18213-3.06055-4.14014-4.90381c-1.06543-2.04492-1.60547-4.37061-1.60547-6.9126 c0-4.42822,1.91553-8.52539,5.38623-11.53564c3.37012-2.91602,7.89844-4.52148,12.75977-4.52148 c6.27832,0,12.40625,2.26074,17.71289,6.53076l1.91602,1.54834l-6.90625,8.98633l-2.01563-1.65625 c-3.5498-2.93066-7.45313-4.6084-10.70703-4.6084c-3.02441,0-6.56738,1.31055-6.625,5.00439 c-0.02148,1.64893,0.77051,2.54883,1.97266,3.3916c1.72168,1.20947,4.45703,2.25342,7.35254,3.3623l0.02832,0.00732 c0.4541,0.18018,0.90723,0.36035,1.36133,0.53271c4.09668,1.60596,7.9707,3.11816,10.9082,5.5376 c3.4707,2.86572,5.16309,6.63867,5.16309,11.54248c0,2.65723-0.56836,5.12695-1.69238,7.34424 c-1.05859,2.07422-2.57031,3.88184-4.51465,5.37207c-3.54199,2.70703-8.31641,4.20508-13.4502,4.20508 C93.2998,128.55029,86.229,125.45459,80.97266,119.83057z" transform="translate(216.88999 -125.59373)" stroke-width="0" stroke-linejoin="miter" stroke-miterlimit="2" fill="#392e42" stroke="#392e42"></path> </g>         <g id="path377432" aria-label="S" transform="translate(0 299.56492) translate(379.8154474999999 62.45312) scale(0.77) translate(-338.10875 54.144)"> <path class="c1" d="M80.97266,119.83057l-1.51953-1.62793l7.43848-8.89941l1.92188,2.41211 c1.50488,1.88672,3.4707,3.43457,5.6748,4.47168c2.07324,0.979,4.3125,1.49023,6.47266,1.49023 c2.5498,0,4.72363-0.56152,6.12109-1.57666c1.25977-0.91455,1.87207-2.13867,1.87207-3.75146 c0-1.75732-0.54004-2.84424-1.91504-3.87402c-1.58496-1.18115-4.14844-2.146-7.12207-3.26904 c-0.25195-0.09375-0.51074-0.19434-0.77734-0.29541c-4.08301-1.51904-8.00684-3.08154-11.1543-5.5874 c-1.82861-1.45459-3.18213-3.06055-4.14014-4.90381c-1.06543-2.04492-1.60547-4.37061-1.60547-6.9126 c0-4.42822,1.91553-8.52539,5.38623-11.53564c3.37012-2.91602,7.89844-4.52148,12.75977-4.52148 c6.27832,0,12.40625,2.26074,17.71289,6.53076l1.91602,1.54834l-6.90625,8.98633l-2.01563-1.65625 c-3.5498-2.93066-7.45313-4.6084-10.70703-4.6084c-3.02441,0-6.56738,1.31055-6.625,5.00439 c-0.02148,1.64893,0.77051,2.54883,1.97266,3.3916c1.72168,1.20947,4.45703,2.25342,7.35254,3.3623l0.02832,0.00732 c0.4541,0.18018,0.90723,0.36035,1.36133,0.53271c4.09668,1.60596,7.9707,3.11816,10.9082,5.5376 c3.4707,2.86572,5.16309,6.63867,5.16309,11.54248c0,2.65723-0.56836,5.12695-1.69238,7.34424 c-1.05859,2.07422-2.57031,3.88184-4.51465,5.37207c-3.54199,2.70703-8.31641,4.20508-13.4502,4.20508 C93.2998,128.55029,86.229,125.45459,80.97266,119.83057z" transform="translate(258.65562 -125.59373)" stroke-width="0" stroke-linejoin="miter" stroke-miterlimit="2" fill="#392e42" stroke="#392e42"></path> </g>         <g id="path377434" aria-label="I" transform="translate(0 299.56492) translate(415.4676948999999 62.84119999999999) scale(0.77) translate(-384.41037 53.64)"> <path class="c1" d="M94.34741,75.51758l11.30518-3.6001v56.16504H94.34741V75.51758z" transform="translate(290.06296 -125.55748)" stroke-width="0" stroke-linejoin="miter" stroke-miterlimit="2" fill="#392e42" stroke="#392e42"></path> </g>         <g id="path377436" aria-label="S" transform="translate(0 299.56492) translate(427.1343498999999 62.45312) scale(0.77) translate(-399.56187 54.144)"> <path class="c1" d="M80.97266,119.83057l-1.51953-1.62793l7.43848-8.89941l1.92188,2.41211 c1.50488,1.88672,3.4707,3.43457,5.6748,4.47168c2.07324,0.979,4.3125,1.49023,6.47266,1.49023 c2.5498,0,4.72363-0.56152,6.12109-1.57666c1.25977-0.91455,1.87207-2.13867,1.87207-3.75146 c0-1.75732-0.54004-2.84424-1.91504-3.87402c-1.58496-1.18115-4.14844-2.146-7.12207-3.26904 c-0.25195-0.09375-0.51074-0.19434-0.77734-0.29541c-4.08301-1.51904-8.00684-3.08154-11.1543-5.5874 c-1.82861-1.45459-3.18213-3.06055-4.14014-4.90381c-1.06543-2.04492-1.60547-4.37061-1.60547-6.9126 c0-4.42822,1.91553-8.52539,5.38623-11.53564c3.37012-2.91602,7.89844-4.52148,12.75977-4.52148 c6.27832,0,12.40625,2.26074,17.71289,6.53076l1.91602,1.54834l-6.90625,8.98633l-2.01563-1.65625 c-3.5498-2.93066-7.45313-4.6084-10.70703-4.6084c-3.02441,0-6.56738,1.31055-6.625,5.00439 c-0.02148,1.64893,0.77051,2.54883,1.97266,3.3916c1.72168,1.20947,4.45703,2.25342,7.35254,3.3623l0.02832,0.00732 c0.4541,0.18018,0.90723,0.36035,1.36133,0.53271c4.09668,1.60596,7.9707,3.11816,10.9082,5.5376 c3.4707,2.86572,5.16309,6.63867,5.16309,11.54248c0,2.65723-0.56836,5.12695-1.69238,7.34424 c-1.05859,2.07422-2.57031,3.88184-4.51465,5.37207c-3.54199,2.70703-8.31641,4.20508-13.4502,4.20508 C93.2998,128.55029,86.229,125.45459,80.97266,119.83057z" transform="translate(320.10874 -125.59373)" stroke-width="0" stroke-linejoin="miter" stroke-miterlimit="2" fill="#392e42" stroke="#392e42"></path> </g>         <g id="path377438" aria-label="T" transform="translate(0 299.56492) translate(458.5359123999999 62.84119999999999) scale(0.77) translate(-440.34312 53.64)"> <path class="c1" d="M94.23975,82.64648H78.97412v-10.729h42.05176v10.729h-15.48145v45.43604H94.23975V82.64648z" transform="translate(361.369 -125.55748)" stroke-width="0" stroke-linejoin="miter" stroke-miterlimit="2" fill="#392e42" stroke="#392e42"></path> </g>         <g id="path377440" aria-label="Y" transform="translate(0 299.56492) translate(487.9338424999999 62.84119999999999) scale(0.77) translate(-478.52225 53.64)"> <path class="c1" d="M94.26416,103.44873L74.93115,71.91748h13.12598L99.9458,91.63281l11.83105-19.71533h13.29199 l-19.49902,31.53125v24.63379H94.26416V103.44873z" transform="translate(403.5911 -125.55748)" stroke-width="0" stroke-linejoin="miter" stroke-miterlimit="2" fill="#392e42" stroke="#392e42"></path> </g>         <g id="path377442" aria-label="T" transform="translate(0 299.56492) translate(538.6640374 62.84119999999999) scale(0.77) translate(-544.40562 53.64)"> <path class="c1" d="M94.23975,82.64648H78.97412v-10.729h42.05176v10.729h-15.48145v45.43604H94.23975V82.64648z" transform="translate(465.4315 -125.55748)" stroke-width="0" stroke-linejoin="miter" stroke-miterlimit="2" fill="#392e42" stroke="#392e42"></path> </g>         <g id="path377444" aria-label="R" transform="translate(0 299.56492) translate(573.6059675 62.84119999999999) scale(0.77) translate(-589.78475 53.64)"> <path class="c1" d="M121.90405,128.08252h-13.65918l-13.37109-19.27637V97.83984h2.16016 c3.40527,0,5.9541-0.74902,7.56738-2.23242c1.38281-1.27441,2.08105-3.11084,2.08105-5.47266 c0-2.4624-0.71973-4.33447-2.13867-5.55859c-1.4541-1.26025-3.75879-1.92969-6.64648-1.92969h-8.49609v45.43604H78.09595V71.91748 h20.66553c3.16113,0,6.0127,0.45361,8.48926,1.34619c2.44141,0.88574,4.5293,2.21094,6.20703,3.93164 c3.10352,3.18994,4.74512,7.71191,4.74512,13.0835c0,4.81738-1.33203,8.79932-3.95996,11.83789 c-1.8291,2.10986-4.24121,3.72266-7.2002,4.81006L121.90405,128.08252z" transform="translate(511.6888 -125.55748)" stroke-width="0" stroke-linejoin="miter" stroke-miterlimit="2" fill="#392e42" stroke="#392e42"></path> </g>         <g id="path377446" aria-label="A" transform="translate(0 299.56492) translate(604.8507426000001 62.84119999999999) scale(0.77) translate(-630.36238 53.64)"> <polygon class="c1" points="104.82788,71.91748 95.08569,71.91748 73.80786,128.08252 85.77515,128.08252 99.93921,89.14844 114.22534,128.08252 126.19214,128.08252 " transform="translate(556.55452 -125.55748)" stroke-width="0" stroke-linejoin="miter" stroke-miterlimit="2" fill="#392e42" stroke="#392e42"></polygon> <polygon class="c3" points="100.03819,128.08252 91.09854,114.24284 108.90146,114.24284 " transform="translate(556.55452 -125.55748)" stroke-width="0" stroke-linejoin="miter" stroke-miterlimit="2" fill="#e45151" stroke="#e45151"></polygon> </g>         <g id="path377448" aria-label="D" transform="translate(0 299.56492) translate(646.6958151000001 62.84119999999999) scale(0.77) translate(-684.70663 53.64)"> <path class="c1" d="M76.5979,128.11865v-56.2373h18.43311c3.81641,0,7.51758,0.72705,11.00293,2.16748 c3.38477,1.39648,6.42285,3.40576,9.02246,5.96191c2.61426,2.5708,4.67285,5.58057,6.10645,8.93604 c1.4834,3.47803,2.23926,7.18604,2.23926,11.01709c0,3.83057-0.75586,7.53906-2.23926,11.02393 c-1.43359,3.36328-3.48535,6.37305-6.09961,8.95703c-2.60645,2.57129-5.6377,4.58789-9.02246,5.99219 c-3.48438,1.44727-7.19336,2.18164-11.00977,2.18164H76.5979z M95.03101,116.81299c4.58691,0,8.87891-1.74219,12.09766-4.91797 c3.2041-3.16113,4.96777-7.40234,4.96777-11.93115c0-4.52197-1.76367-8.7417-4.96094-11.88818 c-3.21094-3.1543-7.50977-4.88965-12.10449-4.88965h-7.12842v33.62695H95.03101z" transform="translate(608.10873 -125.52135)" stroke-width="0" stroke-linejoin="miter" stroke-miterlimit="2" fill="#392e42" stroke="#392e42"></path> </g>         <g id="path377450" aria-label="E" transform="translate(0 299.56492) translate(686.9764401000001 62.84119999999999) scale(0.77) translate(-737.01913 53.64)"> <path class="c1" d="M81.8186,128.08252h36.36279v-10.51367H81.8186V128.08252z M81.8186,105.47217h36.36279v-10.729H81.8186 V105.47217z M81.8186,71.91748v10.729h36.36279v-10.729H81.8186z" transform="translate(655.20053 -125.55748)" stroke-width="0" stroke-linejoin="miter" stroke-miterlimit="2" fill="#392e42" stroke="#392e42"></path> </g>     </g>           </g>   </g> </svg>